<mxfile host="app.diagrams.net" modified="2023-12-25T17:15:43.650Z" agent="Mozilla/5.0 (Windows NT 10.0; Win64; x64) AppleWebKit/537.36 (KHTML, like Gecko) Chrome/119.0.0.0 Safari/537.36 Edg/119.0.0.0" version="22.1.11" etag="UN-SFMM99sWnNm_EeTqY" type="github">
  <diagram name="Page-1" id="ofl3m_uGpCDPKLLt3MW1">
    <mxGraphModel>
      <root>
        <mxCell id="0" />
        <mxCell id="1" parent="0" />
      </root>
    </mxGraphModel>
  </diagram>
</mxfile>
